<?xml version="1.0" standalone="no"?>
<!DOCTYPE svg PUBLIC "-//W3C//DTD SVG 20010904//EN"
 "http://www.w3.org/TR/2001/REC-SVG-20010904/DTD/svg10.dtd">
<svg version="1.0" xmlns="http://www.w3.org/2000/svg"
 width="270.000000pt" height="270.000000pt" viewBox="0 0 270.000000 270.000000"
 preserveAspectRatio="xMidYMid meet">
<metadata>
Created by potrace 1.14, written by Peter Selinger 2001-2017
</metadata>
<g transform="translate(0.000000,270.000000) scale(0.100000,-0.100000)"
fill="#000000" stroke="none">
<path d="M548 1653 c-10 -2 -18 -9 -18 -15 0 -6 -7 -19 -15 -28 -12 -14 -12
-19 0 -43 14 -27 14 -27 -8 -12 -68 48 -146 -31 -106 -108 9 -16 9 -22 0 -25
-18 -6 -13 -30 9 -37 25 -8 70 -62 70 -83 0 -14 -2 -14 -9 -3 -12 19 -31 5
-31 -24 0 -15 9 -29 21 -36 17 -9 26 -7 49 9 l27 21 22 -30 c12 -16 18 -29 13
-29 -5 0 -17 10 -26 23 -15 21 -16 21 -29 5 -8 -10 -24 -18 -36 -18 -11 0 -21
-3 -21 -7 0 -19 40 -66 71 -84 125 -72 196 -71 329 6 48 28 77 85 43 85 -9 0
-25 7 -35 16 -16 16 -19 15 -39 -7 l-20 -24 17 32 18 32 24 -20 c31 -24 37
-24 62 1 22 22 24 29 11 49 -8 12 -12 12 -25 2 -19 -16 -20 -12 -6 23 5 14 28
37 51 51 37 24 40 28 25 43 -10 12 -12 22 -6 32 15 23 12 73 -6 99 -14 20 -23
23 -59 19 -37 -5 -42 -3 -38 13 3 10 -2 25 -10 33 -8 9 -17 21 -19 28 -4 10
-41 13 -144 14 -76 1 -147 0 -156 -3z m172 -48 c0 -32 -2 -35 -30 -35 -28 0
-30 3 -30 35 0 32 2 35 30 35 28 0 30 -3 30 -35z m-122 -8 c3 -22 -1 -27 -17
-27 -17 0 -21 6 -21 31 0 24 4 30 18 27 10 -2 18 -14 20 -31z m226 25 c9 -15
-6 -52 -20 -52 -9 0 -14 11 -14 30 0 29 21 42 34 22z m-184 -38 c0 -8 -4 -12
-10 -9 -5 3 -10 10 -10 16 0 5 5 9 10 9 6 0 10 -7 10 -16z m117 -6 c-3 -8 -6
-5 -6 6 -1 11 2 17 5 13 3 -3 4 -12 1 -19z m-307 -48 c-6 -11 -9 -30 -8 -43 2
-12 -1 -24 -7 -27 -5 -3 -11 11 -13 30 -3 24 2 38 14 47 24 18 27 16 14 -7z
m505 -4 c10 -15 14 -33 9 -50 -8 -33 -23 -24 -22 14 1 16 -5 36 -12 45 -8 10
-9 15 -1 15 6 0 18 -11 26 -24z m-417 -21 c0 -14 -6 -25 -14 -25 -11 0 -11 5
-2 25 6 14 12 25 13 25 2 0 3 -11 3 -25z m365 -21 c13 3 17 2 10 -5 -14 -14
-63 0 -63 18 0 12 3 12 16 -2 10 -9 26 -14 37 -11z m-403 -8 c0 -11 -19 -15
-25 -6 -3 5 1 10 9 10 9 0 16 -2 16 -4z m126 -11 c17 -13 17 -14 2 -15 -10 0
-18 -5 -18 -11 0 -8 -5 -8 -15 1 -36 30 -7 54 31 25z m174 -62 c0 -85 -17 -92
-22 -8 l-3 50 -52 3 c-29 2 -56 9 -63 17 -11 13 -2 15 64 15 l76 0 0 -77z
m-290 38 c0 -5 -7 -12 -16 -15 -14 -5 -15 -4 -4 9 14 17 20 19 20 6z m395 -12
c-7 -10 -35 -1 -35 11 0 5 9 6 20 3 11 -3 17 -9 15 -14z m-155 -17 c0 -15 -8
-17 -56 -15 -61 3 -70 6 -59 22 3 6 31 11 61 11 45 0 54 -3 54 -18z m-293 -19
c-3 -3 -11 -2 -17 2 -9 6 -9 10 1 16 14 8 27 -7 16 -18z m153 -52 c0 -48 4
-61 25 -81 21 -20 31 -22 75 -17 61 7 66 -12 7 -27 -29 -7 -45 -6 -73 7 -44
21 -64 66 -64 143 0 49 2 55 15 44 10 -8 15 -31 15 -69z m334 58 c-6 -11 -24
-2 -24 11 0 5 7 7 15 4 8 -4 12 -10 9 -15z m-454 -29 c0 -5 -2 -10 -4 -10 -3
0 -8 5 -11 10 -3 6 -1 10 4 10 6 0 11 -4 11 -10z m147 -12 c-3 -8 -6 -5 -6 6
-1 11 2 17 5 13 3 -3 4 -12 1 -19z m265 0 c-7 -7 -12 -8 -12 -2 0 14 12 26 19
19 2 -3 -1 -11 -7 -17z m-237 -58 c8 0 15 4 15 10 0 6 10 5 26 -2 21 -10 27
-9 35 3 7 12 9 11 9 -3 0 -19 -36 -48 -60 -48 -23 1 -46 22 -54 50 -6 21 -5
22 4 8 6 -10 18 -18 25 -18z m212 -7 c-3 -10 -5 -4 -5 12 0 17 2 24 5 18 2 -7
2 -21 0 -30z m-83 -16 c-3 -9 -10 -17 -15 -17 -11 0 -12 34 -2 44 11 11 24 -9
17 -27z m-257 -94 c-8 -9 -20 -12 -27 -8 -8 5 -6 11 7 20 23 17 39 7 20 -12z
m332 -7 c-12 -13 -34 8 -25 23 5 8 11 7 21 -2 8 -7 10 -16 4 -21z m-272 -7
c13 -13 6 -39 -11 -39 -18 0 -35 21 -29 36 6 17 25 18 40 3z m229 0 c3 -6 -1
-18 -9 -27 -13 -13 -19 -13 -32 -2 -14 11 -13 14 2 26 22 16 30 17 39 3z
m-176 -39 c0 -11 -4 -20 -9 -20 -5 0 -7 9 -4 20 3 11 7 20 9 20 2 0 4 -9 4
-20z m103 -20 c-7 -8 -22 24 -16 34 4 5 10 1 13 -10 4 -10 6 -21 3 -24z m-50
10 c3 -13 0 -20 -10 -20 -8 0 -11 5 -7 11 3 6 0 15 -7 20 -11 7 -11 9 2 9 9 0
19 -9 22 -20z"/>
<path d="M570 1150 c0 -5 5 -10 10 -10 6 0 10 5 10 10 0 6 -4 10 -10 10 -5 0
-10 -4 -10 -10z"/>
<path d="M795 1159 c-10 -15 3 -25 16 -12 7 7 7 13 1 17 -6 3 -14 1 -17 -5z"/>
<path d="M1084 1538 c-4 -6 0 -16 9 -23 14 -10 17 -30 17 -109 0 -89 1 -96 20
-96 17 0 19 8 22 82 l3 81 60 -81 c86 -117 95 -113 95 39 0 109 -2 120 -17
117 -15 -3 -19 -17 -23 -81 l-5 -77 -63 80 c-47 61 -68 80 -86 80 -14 0 -28
-5 -32 -12z"/>
<path d="M1407 1544 c-12 -13 -7 -34 8 -34 12 0 15 -15 15 -75 0 -67 3 -79 25
-100 31 -32 110 -35 146 -6 21 17 24 30 27 100 2 45 8 81 13 81 5 0 9 9 9 20
0 16 -7 20 -30 20 l-30 0 0 -81 c0 -101 -9 -119 -59 -119 -21 0 -43 6 -49 13
-6 7 -12 51 -14 97 -3 83 -4 85 -28 88 -14 2 -29 0 -33 -4z"/>
<path d="M1720 1531 c0 -12 6 -21 15 -21 11 0 14 -18 12 -97 -1 -90 0 -98 18
-98 15 0 19 8 19 40 1 59 32 60 80 0 21 -25 46 -45 57 -45 26 0 24 9 -12 53
l-31 38 26 20 c33 26 36 77 5 105 -16 15 -40 20 -105 23 -80 3 -84 2 -84 -18z
m154 -34 c10 -7 17 -22 14 -33 -2 -15 -13 -20 -54 -22 l-50 -3 -2 36 c-3 34
-2 35 36 35 21 0 46 -6 56 -13z"/>
<path d="M2091 1523 c1 -15 -14 -65 -35 -110 -20 -45 -36 -86 -36 -93 0 -20
34 -6 45 18 8 19 17 22 68 22 52 0 59 -3 69 -25 11 -25 49 -35 47 -12 0 6 -22
59 -48 117 -44 100 -48 105 -79 108 -30 3 -32 1 -31 -25z m73 -100 c7 -21 4
-23 -28 -23 -41 0 -43 5 -19 55 17 35 17 36 29 13 6 -13 15 -33 18 -45z"/>
<path d="M1330 1170 c0 -55 2 -60 24 -66 32 -8 69 -2 73 13 3 7 -9 13 -29 15
-38 4 -41 22 -3 26 36 5 31 22 -6 22 -41 0 -33 24 9 28 51 5 37 22 -18 22
l-50 0 0 -60z"/>
<path d="M1470 1170 c0 -33 3 -60 8 -61 4 -1 22 -2 41 -2 42 -2 54 20 14 25
-26 3 -28 7 -31 51 -2 33 -7 47 -18 47 -11 0 -14 -14 -14 -60z"/>
<path d="M1600 1170 c0 -47 3 -60 15 -60 12 0 15 13 15 60 0 47 -3 60 -15 60
-12 0 -15 -13 -15 -60z"/>
<path d="M1665 1220 c3 -5 13 -10 21 -10 10 0 14 -13 14 -50 0 -38 4 -50 15
-50 11 0 15 12 15 50 0 43 3 50 20 50 11 0 20 5 20 10 0 6 -25 10 -56 10 -34
0 -53 -4 -49 -10z"/>
<path d="M1810 1171 c0 -63 4 -68 54 -67 41 1 47 26 7 26 -21 0 -31 5 -31 15
0 9 9 15 25 15 14 0 25 5 25 10 0 6 -11 10 -25 10 -16 0 -25 6 -25 15 0 10 10
15 30 15 17 0 30 5 30 10 0 6 -20 10 -45 10 l-45 0 0 -59z"/>
</g>
</svg>
