<?xml version="1.0" encoding="utf-8"?>
<svg viewBox="0 0 31 31" xmlns="http://www.w3.org/2000/svg" xmlns:xlink="http://www.w3.org/1999/xlink">
  <style>
      :root>svg {
          display: none
      }

      :root>svg:target {
          display: block
      }
  </style>

  <svg id='whatsapp' viewBox="0 0 26 26" xmlns="http://www.w3.org/2000/svg">
      <path fill-rule="evenodd" clip-rule="evenodd" d="M22.2117 3.7789C21.0125 2.57748 19.5856 1.62485 18.0137 0.976186C16.4419 0.327526 14.7564 -0.00426286 13.0548 4.13467e-05C5.91957 4.13467e-05 0.111037 5.77956 0.108153 12.8838C0.108153 15.1542 0.703714 17.3702 1.83571 19.3249L0 26L6.86266 24.2074C8.76095 25.2359 10.8877 25.7752 13.049 25.7761H13.0548C20.1885 25.7761 25.9971 19.9966 25.9999 12.8924C26.0048 11.1995 25.6726 9.52254 25.0224 7.95827C24.3721 6.39401 23.4168 4.97352 22.2117 3.7789ZM13.0548 23.6018H13.0504C11.1232 23.602 9.2314 23.0859 7.57358 22.1078L7.18135 21.8753L3.10903 22.9387L4.19489 18.9876L3.93965 18.5829C2.86214 16.8757 2.29173 14.8999 2.29428 12.8838C2.29717 6.97939 7.12367 2.17579 13.0591 2.17579C14.4727 2.17267 15.8728 2.4486 17.1785 2.98761C18.4842 3.52663 19.6695 4.31802 20.6658 5.316C21.6675 6.30921 22.4615 7.49016 23.0018 8.7906C23.5421 10.091 23.8181 11.4852 23.8138 12.8924C23.8109 18.7968 18.9844 23.6018 13.0548 23.6018ZM18.957 15.5805C18.6326 15.4183 17.0434 14.6404 16.7464 14.5328C16.4508 14.4252 16.2359 14.3721 16.0196 14.6935C15.8033 15.015 15.1832 15.7398 14.9943 15.9551C14.8054 16.1704 14.6165 16.1962 14.2935 16.0355C13.9705 15.8747 12.9279 15.5346 11.692 14.4381C10.7302 13.5841 10.0813 12.5307 9.89238 12.2078C9.70347 11.8849 9.87219 11.7112 10.0351 11.5505C10.1808 11.407 10.3582 11.1745 10.5197 10.9864C10.6812 10.7984 10.7345 10.665 10.8427 10.4497C10.9508 10.2344 10.8975 10.0464 10.8153 9.88565C10.7345 9.72347 10.0871 8.13902 9.81739 7.49462C9.55639 6.87031 9.28961 6.95355 9.09061 6.94494C8.88451 6.93655 8.67824 6.93272 8.47197 6.93346C8.30795 6.93762 8.14656 6.97546 7.99792 7.04461C7.84928 7.11376 7.7166 7.21273 7.60819 7.33531C7.31113 7.65823 6.47619 8.43611 6.47619 10.0206C6.47619 11.605 7.63559 13.1364 7.7971 13.3516C7.95861 13.5669 10.0784 16.8176 13.323 18.2126C14.0959 18.5442 14.6987 18.7422 15.1674 18.8915C15.9417 19.1369 16.6469 19.101 17.205 19.0192C17.8265 18.9274 19.1185 18.2413 19.3882 17.4893C19.6579 16.7373 19.6579 16.0929 19.5771 15.958C19.4964 15.823 19.2786 15.7412 18.957 15.5805Z" fill="white"/>
  </svg>

  <svg id="phone" viewBox="0 0 23 24" xmlns="http://www.w3.org/2000/svg">
    <path d="M20.3205 22.6901L20.3439 22.6526L22.6769 17.9171L15.8619 12.8058L12.7263 15.1574C11.5438 15.087 10.4281 14.5855 9.59049 13.7479C8.75285 12.9102 8.25139 11.7946 8.18104 10.612L10.5326 7.47647L5.42145 0.66153L0.725491 2.97514L0.685842 2.99461L0.648436 3.01807C0.449498 3.14153 0.28547 3.31386 0.171968 3.51865C0.0584664 3.72343 -0.000731851 3.95386 6.8291e-06 4.188L6.77569e-06 5.40994C6.67276e-06 7.76435 0.463742 10.0957 1.36474 12.2709C2.26573 14.4461 3.58635 16.4225 5.25117 18.0873C6.91599 19.7522 8.89242 21.0728 11.0676 21.9738C13.2428 22.8747 15.5742 23.3385 17.9286 23.3385H19.1506C19.3847 23.3392 19.6151 23.28 19.8199 23.1665C20.0247 23.053 20.197 22.889 20.3205 22.6901ZM17.9286 21.5885C9.00769 21.5885 1.75001 14.3308 1.75001 5.40994V4.42119L4.89251 2.8732L8.34521 7.4768L6.423 10.0398V10.3315C6.42495 12.0772 7.11929 13.7508 8.35367 14.9852C9.58806 16.2196 11.2617 16.9139 13.0074 16.9159H13.299L15.862 14.9937L20.4653 18.446L18.9171 21.5885H17.9286Z"/>
  </svg>

  <svg id="prev" viewBox="0 0 22 22" fill="none" xmlns="http://www.w3.org/2000/svg">
    <g clip-path="url(#clip0_111_222)">
      <path d="M9.03285 18.925L1.56475 11.4578L21.5417 11.4578C21.7948 11.4578 22 11.2526 22 10.9995C22 10.7464 21.7948 10.5411 21.5417 10.5411L1.56475 10.5411L9.03285 3.07399C9.20872 2.89193 9.20365 2.60176 9.02159 2.42589C8.84396 2.25436 8.56238 2.25436 8.38479 2.42589L0.13479 10.6759C-0.0444321 10.8546 -0.0447754 11.1448 0.133976 11.3241C0.134233 11.3243 0.134533 11.3246 0.13479 11.3249L8.38479 19.5749C8.56685 19.7508 8.85702 19.7457 9.03289 19.5636C9.20446 19.386 9.20446 19.1044 9.03289 18.9268L9.03285 18.925Z" fill="#FFC107"/>
      <path d="M-0.00025215 10.9996C-0.000466722 10.8779 0.0476576 10.7612 0.133596 10.6751L8.38363 2.42505C8.56569 2.24918 8.85586 2.25425 9.03174 2.43631C9.20327 2.61394 9.20327 2.89552 9.03174 3.07311L1.1062 10.9995L9.03173 18.925C9.20761 19.1071 9.20254 19.3972 9.02048 19.5731C8.84284 19.7447 8.56127 19.7447 8.38363 19.5731L0.133596 11.3231C0.0479151 11.2373 -0.00020924 11.1209 -0.00025215 10.9996Z" fill="white"/>
      <path d="M-1.92738e-06 10.9995C-1.91632e-06 10.7464 0.205217 10.5411 0.458345 10.5411L21.5417 10.5411C21.7948 10.5412 22 10.7464 22 10.9995C22 11.2526 21.7948 11.4579 21.5417 11.4579L0.458302 11.4579C0.205215 11.4579 -1.93845e-06 11.2526 -1.92738e-06 10.9995Z" fill="white"/>
    </g>
    <defs>
      <clipPath id="clip0_111_222">
      <rect width="22" height="22" fill="white" transform="translate(22) rotate(90)"/>
    </clipPath>
    </defs>
  </svg>

  <svg id="next" viewBox="0 0 22 22" fill="none" xmlns="http://www.w3.org/2000/svg">
    <g clip-path="url(#clip0_111_216)">
      <path d="M12.9672 3.07501L20.4353 10.5422L0.458347 10.5422C0.205218 10.5422 -3.91452e-07 10.7474 -3.80387e-07 11.0005C-3.69323e-07 11.2536 0.205218 11.4589 0.458347 11.4589L20.4353 11.4589L12.9672 18.926C12.7913 19.1081 12.7964 19.3982 12.9784 19.5741C13.156 19.7456 13.4376 19.7456 13.6152 19.5741L21.8652 11.3241C22.0444 11.1454 22.0448 10.8551 21.866 10.6759C21.8658 10.6757 21.8655 10.6754 21.8652 10.6751L13.6152 2.42511C13.4331 2.24924 13.143 2.25431 12.9671 2.43637C12.7955 2.614 12.7955 2.89558 12.9671 3.07321L12.9672 3.07501Z" fill="#FFC107"/>
      <path d="M22.0003 11.0004C22.0005 11.1221 21.9523 11.2388 21.8664 11.3249L13.6164 19.5749C13.4343 19.7508 13.1441 19.7457 12.9683 19.5637C12.7967 19.3861 12.7967 19.1045 12.9683 18.9269L20.8938 11.0005L12.9683 3.07499C12.7924 2.89293 12.7975 2.60277 12.9795 2.4269C13.1572 2.25532 13.4387 2.25532 13.6164 2.4269L21.8664 10.6769C21.9521 10.7627 22.0002 10.8791 22.0003 11.0004Z" fill="white"/>
      <path d="M22 11.0005C22 11.2536 21.7948 11.4589 21.5417 11.4589L0.458348 11.4589C0.205219 11.4588 -8.97079e-09 11.2536 -2.00359e-08 11.0005C-3.1101e-08 10.7474 0.205219 10.5421 0.458348 10.5421L21.5417 10.5421C21.7948 10.5421 22 10.7474 22 11.0005Z" fill="white"/>
    </g>
    <defs>
      <clipPath id="clip0_111_216">
      <rect width="22" height="22" fill="white" transform="translate(0 22) rotate(-90)"/>
    </clipPath>
    </defs>
  </svg>

  <svg id="map" width="56" height="56" viewBox="0 0 56 56" fill="none" xmlns="http://www.w3.org/2000/svg">
    <path d="M52.2511 9.62892C52.0602 9.47365 51.8351 9.36591 51.5945 9.31453C51.3538 9.26315 51.1044 9.2696 50.8667 9.33336L35.9178 14L20.9378 6.39336C20.733 6.2986 20.5101 6.24951 20.2844 6.24951C20.0588 6.24951 19.8359 6.2986 19.6311 6.39336L4.07555 12.7556C3.78902 12.8733 3.54416 13.0739 3.37234 13.3316C3.20052 13.5893 3.10955 13.8925 3.1111 14.2023V46.06C3.11237 46.3148 3.1762 46.5654 3.29698 46.7897C3.41776 47.014 3.59179 47.2053 3.80377 47.3466C4.01576 47.4879 4.25921 47.575 4.51274 47.6002C4.76627 47.6254 5.02211 47.588 5.25777 47.4911L20.2222 41.3467L35.14 49C35.3614 49.1135 35.6068 49.1721 35.8555 49.1711C36.0102 49.1946 36.1675 49.1946 36.3222 49.1711L51.8778 44.3178C52.2055 44.2151 52.4901 44.0068 52.6871 43.7254C52.8841 43.4441 52.9824 43.1054 52.9667 42.7623V10.8889C52.9586 10.6366 52.8892 10.39 52.7646 10.1705C52.6399 9.95099 52.4637 9.76511 52.2511 9.62892ZM49.7778 41.6111L36.8355 45.6556V42.0934H34.3467V45.2045L21.28 38.5V35.8711H18.7911V38.5467L6.22221 43.7267V15.2289L18.7911 10.0489V13.7045H21.28V10.0645L34.3467 16.7534V20.02H36.8355V17.1111L49.7778 13.0045V41.6111Z" fill="black"/>
    <path d="M34.3467 23.4268H36.8356V29.3534H34.3467V23.4268Z" fill="black"/>
    <path d="M34.3467 32.76H36.8356V38.6867H34.3467V32.76Z" fill="black"/>
    <path d="M18.7913 17.2046H21.2801V23.1313H18.7913V17.2046Z" fill="black"/>
    <path d="M18.7913 26.6465H21.2801V32.4798H18.7913V26.6465Z" fill="black"/>
  </svg>

  <svg id="user" viewBox="0 0 23 23" fill="none" xmlns="http://www.w3.org/2000/svg">
    <path fill-rule="evenodd" clip-rule="evenodd" d="M11.4999 22.0418C5.67792 22.0418 0.958252 17.3222 0.958252 11.5002C0.958252 5.67816 5.67792 0.958496 11.4999 0.958496C17.3219 0.958496 22.0416 5.67816 22.0416 11.5002C22.0416 17.3222 17.3219 22.0418 11.4999 22.0418ZM18.5911 16.4113C19.5582 15.0176 20.1249 13.325 20.1249 11.5002C20.1249 6.73671 16.2634 2.87516 11.4999 2.87516C6.73646 2.87516 2.87492 6.73671 2.87492 11.5002C2.87492 13.325 3.44166 15.0176 4.40874 16.4113C5.48729 14.9866 8.02175 14.3752 11.4999 14.3752C14.9781 14.3752 17.5125 14.9866 18.5911 16.4113ZM17.2161 17.9591C16.9356 16.9505 14.9206 16.2918 11.4999 16.2918C8.07926 16.2918 6.06426 16.9505 5.78377 17.9591C7.30558 19.3069 9.30719 20.1252 11.4999 20.1252C13.6926 20.1252 15.6943 19.3069 17.2161 17.9591ZM11.4999 14.3752C9.35408 14.3752 7.66659 12.8681 7.66659 9.5835C7.66659 7.43277 9.17989 5.75016 11.4999 5.75016C13.8135 5.75016 15.3333 7.59167 15.3333 9.77516C15.3333 12.9181 13.6256 14.3752 11.4999 14.3752ZM9.58325 9.5835C9.58325 11.7582 10.3674 12.4585 11.4999 12.4585C12.6286 12.4585 13.4166 11.7861 13.4166 9.77516C13.4166 8.57765 12.6649 7.66683 11.4999 7.66683C10.2864 7.66683 9.58325 8.44866 9.58325 9.5835Z" fill="#929AA2"/>
  </svg>

  <svg id="phone-fill" viewBox="0 0 15 14" fill="none" xmlns="http://www.w3.org/2000/svg">
    <path d="M12.2744 8.758C11.7685 8.25849 11.1368 8.25849 10.6341 8.758C10.2506 9.13828 9.86711 9.51855 9.49006 9.90527C9.38693 10.0116 9.29992 10.0342 9.17424 9.96328C8.92609 9.82793 8.66183 9.71836 8.42336 9.57011C7.31154 8.87079 6.38019 7.97167 5.55518 6.95975C5.14591 6.45702 4.78174 5.91883 4.52715 5.31297C4.47559 5.19051 4.48526 5.10994 4.58516 5.01004C4.96866 4.63943 5.34249 4.25916 5.71954 3.87888C6.24483 3.35037 6.24483 2.73161 5.71632 2.19987C5.41661 1.89694 5.1169 1.60046 4.81719 1.29753C4.50782 0.988151 4.20166 0.675553 3.88907 0.369399C3.38311 -0.123669 2.75146 -0.123669 2.24873 0.372622C1.86201 0.752897 1.4914 1.14284 1.09824 1.51667C0.734076 1.86149 0.550384 2.28366 0.511712 2.77673C0.450481 3.57918 0.647064 4.3365 0.924213 5.07449C1.4914 6.60204 2.35508 7.95878 3.40244 9.20273C4.81719 10.885 6.50587 12.2159 8.48136 13.1763C9.37082 13.6081 10.2925 13.9401 11.2948 13.9948C11.9844 14.0335 12.5838 13.8595 13.064 13.3213C13.3927 12.9539 13.7633 12.6188 14.1114 12.2675C14.627 11.7454 14.6302 11.1138 14.1178 10.5981C13.5055 9.98261 12.89 9.37031 12.2744 8.758Z" fill="#929AA2"/>
  </svg>

  <svg id="inst" viewBox="0 0 20 20" xmlns="http://www.w3.org/2000/svg">
    <path d="M9.99731 5.12558C7.15795 5.12558 4.86644 7.30255 4.86644 10C4.86644 12.6974 7.15795 14.8744 9.99731 14.8744C12.8367 14.8744 15.1282 12.6974 15.1282 10C15.1282 7.30255 12.8367 5.12558 9.99731 5.12558ZM9.99731 13.168C8.16111 13.168 6.66262 11.7444 6.66262 10C6.66262 8.25557 8.16111 6.83198 9.99731 6.83198C11.8335 6.83198 13.332 8.25557 13.332 10C13.332 11.7444 11.8335 13.168 9.99731 13.168ZM15.3383 3.78993C14.6754 3.78993 14.14 4.29852 14.14 4.92832C14.14 5.55812 14.6754 6.06672 15.3383 6.06672C16.0013 6.06672 16.5366 5.5605 16.5366 4.92832C16.5368 4.77877 16.5059 4.63066 16.4458 4.49246C16.3856 4.35426 16.2974 4.22869 16.1861 4.12294C16.0748 4.01719 15.9426 3.93335 15.7971 3.8762C15.6516 3.81906 15.4957 3.78974 15.3383 3.78993ZM19.9989 10C19.9989 8.68811 20.0114 7.38811 19.9338 6.0786C19.8563 4.55757 19.4911 3.20766 18.3203 2.09541C17.147 0.980781 15.7286 0.636173 14.1275 0.562499C12.7466 0.488824 11.3782 0.500707 9.99981 0.500707C8.61891 0.500707 7.25051 0.488824 5.8721 0.562499C4.27105 0.636173 2.85012 0.983158 1.67935 2.09541C0.506076 3.21004 0.143338 4.55757 0.0657868 6.0786C-0.0117642 7.39049 0.000744099 8.69049 0.000744099 10C0.000744099 11.3095 -0.0117642 12.6119 0.0657868 13.9214C0.143338 15.4424 0.508578 16.7923 1.67935 17.9046C2.85262 19.0192 4.27105 19.3638 5.8721 19.4375C7.25301 19.5112 8.62141 19.4993 9.99981 19.4993C11.3807 19.4993 12.7491 19.5112 14.1275 19.4375C15.7286 19.3638 17.1495 19.0168 18.3203 17.9046C19.4936 16.79 19.8563 15.4424 19.9338 13.9214C20.0139 12.6119 19.9989 11.3119 19.9989 10ZM17.7974 15.604C17.6148 16.0366 17.3947 16.3598 17.0419 16.6925C16.6892 17.0276 16.3515 17.2368 15.8962 17.4103C14.5803 17.907 11.4558 17.7953 9.99731 17.7953C8.53885 17.7953 5.4118 17.907 4.09593 17.4126C3.64064 17.2391 3.30041 17.03 2.95018 16.6949C2.59745 16.3598 2.37731 16.039 2.19469 15.6064C1.67434 14.3539 1.79192 11.3856 1.79192 10C1.79192 8.61444 1.67434 5.64368 2.19469 4.39359C2.37731 3.96104 2.59745 3.63783 2.95018 3.3051C3.30291 2.97238 3.64064 2.76086 4.09593 2.58737C5.4118 2.09303 8.53885 2.20473 9.99731 2.20473C11.4558 2.20473 14.5828 2.09303 15.8987 2.58737C16.354 2.76086 16.6942 2.97 17.0444 3.3051C17.3972 3.6402 17.6173 3.96104 17.7999 4.39359C18.3203 5.64368 18.2027 8.61444 18.2027 10C18.2027 11.3856 18.3203 14.3539 17.7974 15.604Z" />
  </svg>

  <svg id="mail" viewBox="0 0 18 18" fill="none" xmlns="http://www.w3.org/2000/svg">
    <path d="M0.75 3.75L9 10.125L17.25 3.75M0.75 3H17.25V15H0.75V3Z"  stroke-width="1.5"/>
  </svg>
</svg>